<?xml version="1.0" encoding="UTF-8"?><svg id="Camada_1" xmlns="http://www.w3.org/2000/svg" width="2333.6" height="2522.76" xmlns:xlink="http://www.w3.org/1999/xlink" viewBox="0 0 2333.6 2522.76"><defs><style>.cls-1{fill:url(#Gradiente_sem_nome_46);}.cls-2{fill:url(#Gradiente_sem_nome_9);}.cls-3{fill:#fff;}.cls-4{fill:url(#Gradiente_sem_nome_13);}</style><linearGradient id="Gradiente_sem_nome_13" x1="1313.31" y1="772.67" x2="2206.74" y2="772.67" gradientTransform="translate(2346.75) rotate(-180) scale(1 -1)" gradientUnits="userSpaceOnUse"><stop offset="0" stop-color="#aecc46"/><stop offset="1" stop-color="#0f9447"/></linearGradient><linearGradient id="Gradiente_sem_nome_9" x1="1017.73" y1="636.71" x2="2273.1" y2="636.71" gradientUnits="userSpaceOnUse"><stop offset="0" stop-color="#3ab24a"/><stop offset="1" stop-color="#0e6b38"/></linearGradient><linearGradient id="Gradiente_sem_nome_46" x1="703.05" y1="292.99" x2="1192.7" y2="292.99" gradientUnits="userSpaceOnUse"><stop offset="0" stop-color="#0f9447"/><stop offset=".6" stop-color="#70b646"/><stop offset="1" stop-color="#b0cd46"/></linearGradient></defs><rect class="cls-3" x="601.85" y="229.27" width="1209.41" height="1209.41"/><path class="cls-4" d="M1023.31,1104.68c7.11-37.14,42.72-241.24-81.85-383.4-63.7-72.7-151.77-109.19-194.93-127.08-87.6-36.3-153.96-41.2-198.16-48.46-98.38-16.16-234.18-68.2-393.09-228.67-66.2,392.67,88.62,743.72,353.24,864.44,148.88,67.92,299.95,48.07,390.58,25.85-52.37-70.29-124.61-154.51-221.14-238.37-95.48-82.95-187.93-142.27-264.21-184.16,80.98,13.57,196.01,42.11,321.65,106.62,134.29,68.95,228.82,152.35,287.91,213.24Z"/><path class="cls-2" d="M1023.31,1104.68c-1.19-52.14-44.33-341.12,129.75-539.78,89.02-101.59,212.09-152.6,272.42-177.6,122.42-50.73,215.16-57.58,276.93-67.73,137.48-22.59,327.28-95.32,549.35-319.58,92.52,548.76-123.85,1039.36-493.66,1208.07-208.07,94.92-419.18,67.18-545.84,36.12,73.19-98.23,174.15-215.93,309.04-333.12,133.43-115.92,262.64-198.83,369.24-257.37-113.16,18.96-273.93,58.85-449.51,149-187.67,96.35-335.14,216.88-417.72,301.98Z"/><circle class="cls-1" cx="947.87" cy="292.99" r="244.82"/></svg><?xml version="1.0" encoding="UTF-8"?><svg id="Camada_1" xmlns="http://www.w3.org/2000/svg" width="2333.6" height="2522.76" xmlns:xlink="http://www.w3.org/1999/xlink" viewBox="0 0 2333.6 2522.76"><defs><style>.cls-1{fill:url(#Gradiente_sem_nome_46);}.cls-2{fill:url(#Gradiente_sem_nome_9);}.cls-3{fill:url(#Gradiente_sem_nome_13);}</style><linearGradient id="Gradiente_sem_nome_13" x1="1313.31" y1="772.67" x2="2206.74" y2="772.67" gradientTransform="translate(2346.75) rotate(-180) scale(1 -1)" gradientUnits="userSpaceOnUse"><stop offset="0" stop-color="#aecc46"/><stop offset="1" stop-color="#0f9447"/></linearGradient><linearGradient id="Gradiente_sem_nome_9" x1="1017.73" y1="636.71" x2="2273.1" y2="636.71" gradientUnits="userSpaceOnUse"><stop offset="0" stop-color="#3ab24a"/><stop offset="1" stop-color="#0e6b38"/></linearGradient><linearGradient id="Gradiente_sem_nome_46" x1="703.05" y1="292.99" x2="1192.7" y2="292.99" gradientUnits="userSpaceOnUse"><stop offset="0" stop-color="#0f9447"/><stop offset=".6" stop-color="#70b646"/><stop offset="1" stop-color="#b0cd46"/></linearGradient></defs><path class="cls-3" d="M1023.31,1104.68c7.11-37.14,42.72-241.24-81.85-383.4-63.7-72.7-151.77-109.19-194.93-127.08-87.6-36.3-153.96-41.2-198.16-48.46-98.38-16.16-234.18-68.2-393.09-228.67-66.2,392.67,88.62,743.72,353.24,864.44,148.88,67.92,299.95,48.07,390.58,25.85-52.37-70.29-124.61-154.51-221.14-238.37-95.48-82.95-187.93-142.27-264.21-184.16,80.98,13.57,196.01,42.11,321.65,106.62,134.29,68.95,228.82,152.35,287.91,213.24Z"/><path class="cls-2" d="M1023.31,1104.68c-1.19-52.14-44.33-341.12,129.75-539.78,89.02-101.59,212.09-152.6,272.42-177.6,122.42-50.73,215.16-57.58,276.93-67.73,137.48-22.59,327.28-95.32,549.35-319.58,92.52,548.76-123.85,1039.36-493.66,1208.07-208.07,94.92-419.18,67.18-545.84,36.12,73.19-98.23,174.15-215.93,309.04-333.12,133.43-115.92,262.64-198.83,369.24-257.37-113.16,18.96-273.93,58.85-449.51,149-187.67,96.35-335.14,216.88-417.72,301.98Z"/><circle class="cls-1" cx="947.87" cy="292.99" r="244.82"/></svg>
