<?xml version="1.0" encoding="UTF-8"?><svg id="Camada_1" xmlns="http://www.w3.org/2000/svg" width="2333.6" height="2335.42" xmlns:xlink="http://www.w3.org/1999/xlink" viewBox="0 0 2333.6 2335.42"><defs><style>.cls-1{fill:url(#Gradiente_sem_nome_46);}.cls-1,.cls-2,.cls-3{stroke:#fff;stroke-miterlimit:10;stroke-width:20px;}.cls-2{fill:url(#Gradiente_sem_nome_9);}.cls-3{fill:url(#Gradiente_sem_nome_13);}</style><linearGradient id="Gradiente_sem_nome_13" x1="1313.31" y1="782.5" x2="2206.74" y2="782.5" gradientTransform="translate(2346.75) rotate(-180) scale(1 -1)" gradientUnits="userSpaceOnUse"><stop offset="0" stop-color="#aecc46"/><stop offset="1" stop-color="#0f9447"/></linearGradient><linearGradient id="Gradiente_sem_nome_9" x1="1017.73" y1="646.63" x2="2273.1" y2="646.63" gradientUnits="userSpaceOnUse"><stop offset="0" stop-color="#3ab24a"/><stop offset="1" stop-color="#0e6b38"/></linearGradient><linearGradient id="Gradiente_sem_nome_46" x1="703.05" y1="302.82" x2="1192.7" y2="302.82" gradientUnits="userSpaceOnUse"><stop offset="0" stop-color="#0f9447"/><stop offset=".6" stop-color="#70b646"/><stop offset="1" stop-color="#b0cd46"/></linearGradient></defs><path class="cls-3" d="M1023.1,1114.3c.09.09.24.05.26-.07,7.24-37.89,42.34-241.32-81.9-383.11-63.7-72.7-151.77-109.19-194.93-127.08-87.6-36.3-153.96-41.2-198.16-48.46-98.38-16.16-234.18-68.2-393.09-228.67-66.2,392.67,88.62,743.72,353.24,864.44,148.88,67.92,299.95,48.07,390.58,25.85-52.37-70.29-124.61-154.51-221.14-238.37-95.48-82.95-187.93-142.27-264.21-184.16,80.98,13.57,196.01,42.11,321.65,106.62,134.13,68.87,228.59,152.15,287.7,213.02Z"/><path class="cls-2" d="M1023.56,1114.25c-.1.1-.26.04-.26-.1-1.37-53.1-43.92-341.21,129.76-539.42,89.02-101.59,212.09-152.6,272.42-177.6,122.42-50.73,215.16-57.58,276.93-67.73,137.44-22.58,327.15-95.27,549.13-319.36.09-.09.25-.04.27.08,92.39,548.64-123.97,1039.09-493.71,1207.77-207.94,94.86-418.93,67.21-545.61,36.18-.11-.03-.15-.16-.09-.24,73.18-98.2,174.09-215.82,308.9-332.93,133.09-115.63,261.99-198.41,368.44-256.92.15-.08.07-.32-.1-.29-113.12,19.02-273.5,58.94-448.61,148.85-187.47,96.25-334.84,216.63-417.47,301.72Z"/><circle class="cls-1" cx="947.87" cy="302.82" r="244.82"/></svg>